<svg id="Arte" xmlns="http://www.w3.org/2000/svg" xmlns:xlink="http://www.w3.org/1999/xlink" viewBox="0 0 149.74 97.97"><defs><style>.cls-1{fill:url(#New_Gradient_Swatch_copy_3);}.cls-2{fill:url(#linear-gradient);}</style><linearGradient id="New_Gradient_Swatch_copy_3" x1="1.95" y1="48.99" x2="133.63" y2="48.99" gradientUnits="userSpaceOnUse"><stop offset="0" stop-color="#9d14d3"/><stop offset="1" stop-color="#4b21cd"/></linearGradient><linearGradient id="linear-gradient" x1="142.8" y1="52.64" x2="134.36" y2="62.59" gradientUnits="userSpaceOnUse"><stop offset="0" stop-color="#ff3083"/><stop offset="0.8" stop-color="#fd2764"/><stop offset="1" stop-color="#fc245b"/></linearGradient></defs><title>icon</title><path class="cls-1" d="M134.45,72.93a8.26,8.26,0,0,0-3.76-4.85,8.08,8.08,0,0,0-6.31-.75l-1.69.72-.12.06a8,8,0,0,0-2.86,2.83c-1,1.48-1.85,2.67-2.65,3.74a36.51,36.51,0,0,1-4.89,5.14,18.94,18.94,0,0,1-2.44,1.46,14.11,14.11,0,0,1-1.77.49,10.82,10.82,0,0,1-1.61,0,13.77,13.77,0,0,1-1.75-.48,18.54,18.54,0,0,1-2.34-1.4,27.92,27.92,0,0,1-3.5-3.6,45.78,45.78,0,0,1-4.88-8.68c-2-5-3.76-10.2-5.42-15.24l-.57-1.74A178.12,178.12,0,0,0,80.8,31.94,73.16,73.16,0,0,0,71.33,16.6a45.88,45.88,0,0,0-5.71-6A44.58,44.58,0,0,0,57.79,5,40.43,40.43,0,0,0,39.36,0a34.64,34.64,0,0,0-9.47,1.12A29.24,29.24,0,0,0,21.23,5,43.42,43.42,0,0,0,7.85,19.57,55,55,0,0,0,1.63,37.64,106.22,106.22,0,0,0,0,58.28,147.48,147.48,0,0,0,2.07,79c.24,1.5.51,3,.79,4.5a8.08,8.08,0,0,0,14.85,1.9l.71-1.69,0-.13a8.17,8.17,0,0,0,0-4.25c-.49-2.58-.92-5.15-1.27-7.64a116.22,116.22,0,0,1-.86-21.9c.11-1.84.29-3.7.51-5.53a58.24,58.24,0,0,1,3.2-13.06A40.1,40.1,0,0,1,24.21,24a34.2,34.2,0,0,1,4.67-4.72,21.39,21.39,0,0,1,3.24-1.92,22.78,22.78,0,0,1,4.07-1.09,27.65,27.65,0,0,1,5.38,0A31.52,31.52,0,0,1,47.68,18a32.7,32.7,0,0,1,5.63,3.32,43.61,43.61,0,0,1,6.42,6.52,69.89,69.89,0,0,1,7.85,13.93c2,4.94,3.72,10.09,5.36,15.09l1.25,3.8c1,3,2.18,6.45,3.57,10a78.76,78.76,0,0,0,4.47,9.83,47.21,47.21,0,0,0,5.89,8.21,27.69,27.69,0,0,0,3,2.89,30.81,30.81,0,0,0,4.63,3.31A23.71,23.71,0,0,0,106.63,98h.67a23.42,23.42,0,0,0,10.75-2.8,31.51,31.51,0,0,0,5.23-3.64,33.6,33.6,0,0,0,3.47-3.35,85,85,0,0,0,6.86-9,6.15,6.15,0,0,0,1-3A6.43,6.43,0,0,0,134.45,72.93Z"/><path class="cls-2" d="M140.18,46.16a9.56,9.56,0,1,0,9.56,9.56A9.57,9.57,0,0,0,140.18,46.16Z"/></svg>