<?xml version="1.0" encoding="utf-8"?>
<!-- Generator: Adobe Illustrator 23.1.0, SVG Export Plug-In . SVG Version: 6.00 Build 0)  -->
<svg version="1.1" id="Layer_1" xmlns="http://www.w3.org/2000/svg" xmlns:xlink="http://www.w3.org/1999/xlink" x="0px" y="0px"
	 viewBox="0 0 128 128" style="enable-background:new 0 0 128 128;" xml:space="preserve">
<style type="text/css">
	.st0{fill:#2B2B2B;}
</style>
<path class="st0" d="M92.3,20c-0.7,0-5.8,1-47.2,8.8c-0.3,0-1.9,0.4-2.7,1.1s-1.3,1.6-1.4,2.6c-0.7,2.8,1.5,52.6-0.5,54.9
	c-0.9,1-2.5,1.3-3.7,1.5c-7.3,1.3-12.2,2-15.6,5.2c-6,5.8-2.9,16,5.9,17.6c3.3,0.6,9.5-0.2,12.9-2.1c3-1.5,5.3-4.3,6.1-8
	c0.7-3.2,0.5-1,0.5-48.7c0-2.3,0.7-3,2.7-3.4c0,0,36.1-6.7,37.8-7c2.3-0.4,3.5,0.2,3.5,2.5c0,32.3,0.4,31.7-0.9,33.2
	c-0.9,1-2,1.3-3.2,1.5C79,81,74.6,81.2,71.2,84.5c-4.4,4.3-4.3,11,0.5,15.1c3.6,2.8,7.7,3.4,12.7,2.5c5.7-1.1,9.9-4.2,11.2-9.8
	c0.6-2.5,0.4,1.2,0.4-68.8C96,21.2,94.6,19.9,92.3,20z"/>
</svg>
