<?xml version="1.0" encoding="utf-8"?>
<!-- Generator: Adobe Illustrator 23.1.0, SVG Export Plug-In . SVG Version: 6.00 Build 0)  -->
<svg version="1.1" id="Layer_1" xmlns="http://www.w3.org/2000/svg" xmlns:xlink="http://www.w3.org/1999/xlink" x="0px" y="0px"
	 viewBox="0 0 361.1 365" style="enable-background:new 0 0 361.1 365;" xml:space="preserve">
<style type="text/css">
	.st0{fill:#FFFFFF;}
</style>
<g>
	<path class="st0" d="M285.2,111.6c-9.2-8.4-17.5-16.1-26.8-24.6c19.1-13,37.4-25.4,55.7-37.8c3.3-2.2,6.9-5.8,11.1-2.1
		c5,4.4,1.4,8.4-1.4,12.1C311.2,76.4,298.5,93.5,285.2,111.6z"/>
	<path class="st0" d="M320.5,193.1c-18-17.4-36.1-35.3-43-60.3c-2.9-10.6-6.5-19.9-15.8-25.8c-17.5-11.1-26.9-24.3-15.7-45.4
		c4-7.7,0.2-12.2-8.4-11.1c-15.8,1.9-29.8,7.4-39.9,21.8c2.3,0.9,3.6,1.6,5,1.8c4.7,0.9,12-1.6,11.2,6.8c-0.7,7.4-7.6,5.8-12.5,5.7
		c-18.1-0.5-34.9-5.5-50.3-15.1c-5.2-3.2-11-9.4-16.8-5c-6.4,4.9-1.6,12.4,0.3,18.7c0.4,1.5,0.5,3,0.8,4.8c-9.4,2.2-18.7,2.1-28,0.9
		c-4.1-0.5-8.6-2.2-11.3,2.2c-2.7,4.4,1.1,7.8,2.8,11.5c1.2,2.6,4.6,4.1,3.8,7.9c-4.5,1.2-9,2.8-13.6,3.6
		c-19.9,3.5-20.1,3.7-8.4,20.5c-4.5,9.1-35.7,1.6-14.1,25.3c-21.8,10.9-21.8,10.9-12.3,23.8c-13.3,2.4-18.8,9.9-15.2,23.1
		c1.6,6,2.6,12.2,4.5,18.2c18.7,58.9,69.5,82.5,120.6,89.7c7.3,1,10.1-3.5,13-8.7c9.5-16.6,5.2-33.5,0.9-50.2
		c-4-15.5-1-28.7,9.3-40.7c3.9-4.5,6.6-5.2,10.6,0.2c9.2,12.4,22.6,19.3,37.5,20c14.1,0.6,24.4,4.1,34.8,14.8
		c14.1,14.7,45.4,14.6,54.8,3C336.8,240.8,333.8,205.9,320.5,193.1z M247.7,166.3c-5.1-0.5-8.5-4-8.3-9.4c0.3-6,4.1-9.6,10.2-9
		c5.2,0.5,8,4.1,8.5,9.6C257.1,163.1,253.8,166.9,247.7,166.3z"/>
</g>
</svg>
