<?xml version="1.0" encoding="utf-8"?>
<!-- Generator: Adobe Illustrator 23.1.0, SVG Export Plug-In . SVG Version: 6.00 Build 0)  -->
<svg version="1.1" id="Layer_1" xmlns="http://www.w3.org/2000/svg" xmlns:xlink="http://www.w3.org/1999/xlink" x="0px" y="0px"
	 viewBox="0 0 358.3 245" style="enable-background:new 0 0 358.3 245;" xml:space="preserve">
<style type="text/css">
	.st0{fill:#F2A981;}
	.st1{fill:#F9BD95;}
	.st2{fill:#E4E4E4;}
	.st3{fill:#333333;}
	.st4{fill:#1A2548;}
	.st5{fill:#F0F0F0;}
	.st6{fill:#CACACA;}
	.st7{fill:#E69155;}
</style>
<title>img-main</title>
<circle cx="94.4" cy="66.2" r="17.1"/>
<path class="st0" d="M321.2,75.3c1.1-0.7,9.8-9.8,17.4-11.2s19,1.1,19.6,8.1s-0.9,9.2-3.7,10.3c-3.8,1.6-11-2.2-12.9-1
	s-8.1,8-13.7,9s-4.4,2.2-4.4,2.2L321.2,75.3z"/>
<path class="st1" d="M322.8,76.8c0,0,2.9-3.4,9.3-4.6s11.8-8.7,15.2-5.9s-3.4,6.5-5.6,8.3s-4.2,8.1-7.2,10.6s-8.8,2.9-8.8,2.9
	L322,82L322.8,76.8z"/>
<path class="st0" d="M33.6,165.5c-1.3,0.1-13.5-3-20.7-0.2s-15.4,11.2-12.2,17.4s5.7,7.3,8.7,6.7c4-0.7,8.1-7.8,10.4-7.8
	s11.1,2.4,16.4,0.3s4.9-0.5,4.9-0.5L33.6,165.5z"/>
<path class="st1" d="M33.1,167.7c0,0-4.3-1.4-10.3,1.1s-14.6-1-16,3.2s6.3,3.7,9.2,4s7.9,4.6,11.8,5.1s9-2.3,9-2.3l-0.1-7.2
	L33.1,167.7z"/>
<path d="M302.1,5.7c0,0,3.3,5.3-2.9,17.4s-3.8,22.5-3.8,22.5s-8.7,1.7-10.9,5s-3.9,5.8-3.9,5.8s-3.5,3.2-15.5-6.2l6.2-12.8l22-29.9
	L302.1,5.7z"/>
<path class="st2" d="M300,1.5c0,0,4.8,3.5,0,11.4s-11,13-13.7,18.2s-3.8,12.2-10.8,17.2s-10.4,1.9-10.4,1.9l-3.4-4.5l9-10.8l12-17.8
	L300,1.5z"/>
<path class="st3" d="M293.4,0.6c0,0,4.6-1.8,6.7,0.9s1.7,7.9-5.8,16.1S282.8,29.6,281.6,34S278,47,268,48.1s-8.3-8.1-4.4-12.9
	s8.1-5.6,8.1-5.6s0.6-5,5.8-15S293.4,0.6,293.4,0.6z"/>
<path class="st1" d="M284.5,50.5c2.2-3.2,10.9-5,10.9-5s9,15,11.7,16.1l-21.5,8.6l-5-13.9C280.6,56.4,282.3,53.8,284.5,50.5z"/>
<path d="M253.9,46.5c0,0,0.2,5.7-10.2,12.6s-13.2,16.3-13.2,16.3s-7.8-2.6-11-1s-5.8,2.9-5.8,2.9s-4.2,1-9.6-12l10.8-7.3L246,44
	L253.9,46.5z"/>
<path class="st2" d="M254.1,42.2c0,0,2.2,5-5.1,9.1s-14.7,5.4-19.2,8.4s-8.5,8-16.4,8.8s-9.2-3.2-9.2-3.2l-0.7-5.2l12.1-4.5
	l17.7-8.8L254.1,42.2z"/>
<path class="st3" d="M249.1,38.5c0,0,4.5,0.6,4.9,3.7s-2.2,7.1-11.9,10.2s-14.6,4.5-17.5,7.5s-8.8,8.8-17.3,5.2s-3-10.3,2.4-12.3
	s9-0.8,9-0.8s2.7-3.7,11.4-9.4S249.1,38.5,249.1,38.5z"/>
<path class="st1" d="M219.5,74.5c3.2-1.6,11,1,11,1s0.4,16.1,2,18.2l-21.1-2.9l2.3-13.4C213.7,77.4,216.2,76.1,219.5,74.5z"/>
<path class="st4" d="M234.1,90.6v17.1c0,0-28,4.7-28,3.3c0-1.1,2.6-15.7,3.6-21.2c0.2-1.3,1.2-2.4,2.5-2.9c3.2-1.1,10-2.5,19.1,0
	C233,87.5,234.1,88.9,234.1,90.6z"/>
<path class="st4" d="M225.6,152.6c23.5-8.1,31.9-8,47.1-6c18.2,2.4,44.8-3.5,44.8-3.5s-17-29-22.7-47.3c-2.6-8.6-5.7-17.2-9.2-25.5
	c-0.6-1.3-0.1-2.7,1.1-3.4l4.3-2.5c2.6-1.5,5.4-2.5,8.3-3l5.1-0.8c1-0.2,2.1,0.3,2.7,1.1c6.6,9.7,44,65.4,45.4,83
	c1.8,22.1-17.9,37.8-84.9,69.6L255,188.2L225.6,152.6z"/>
<path d="M77.4,154.2c0,0-20.5,6.3-27.5,6.6s-21.6,2.5-21.6,2.5s-3.5,3.5-1.7,11.9s6.3,12.5,6.3,12.5s23-0.5,30.3,1.6
	c11.9,3.6,21.1,13.7,29.9,24.4s15.5,14.4,15.5,14.4l9.1-15.6l-5.3-29.4l-10.1-28.7L77.4,154.2z"/>
<path class="st5" d="M83.2,172.7c0,0-2.1,33.2,25.3,55.2s63.9,18.6,88.9,12.3c16.6-4.2,47.2-16,65.7-23.4c9.5-3.8,14.6-14.2,11.7-24
	c-5-17-15.8-40.9-37.1-45.5c0,0-13.9,9.1-27.1-0.2s-28.1-31.6-45.5-25.3s-59.4,22.4-59.4,22.4L83.2,172.7z"/>
<path class="st6" d="M188.5,127.9c7.9,6,15.3,14.4,22.2,19.3c13.1,9.3,27.1,0.2,27.1,0.2c12.4,2.6,21.2,11.8,27.4,22.3
	c-22,7.9-49.8,14.9-70.1,9.4c-39-10.5-38.6-39.1-38.6-39.1L188.5,127.9z"/>
<path class="st1" d="M114.2,125.4c0.5,0.8,12,18.5,18.2,38.1s-10.4,36.2-26.6,27.6s-22.7-65.7-22.7-65.7L114.2,125.4z"/>
<path class="st7" d="M97.6,147.4l12,6c0,0,0.6,17.6-11.7,28.7c-5.6-10-9.4-25.5-11.7-37.8L97.6,147.4z"/>
<path class="st1" d="M41.4,113.7c0,1.3,6.9,44,23.8,54.5c14.7,9,33.8,4.4,42.8-10.3c1.7-2.8,2.9-5.8,3.7-8.9
	c5.5-21.8-29-57.9-29-57.9L41.4,113.7z"/>
<path class="st7" d="M41.5,114.2c0,0,19,8.1,38.1-10.1c0,0,5.1,11.2,13.8,12.2l-2.8-32.2L84.3,83L70,84.2l-28.9,27.1L41.5,114.2z"/>
<path d="M101.6,115.3c0,0-5.5,8-4,11.4c0,0-8.6-2.8-11.4-13.6s-1.4-16-1.4-16s-8.5,8.6-20.7,14.1c-7.3,3.2-17.6,3-22.1,2.8
	c-1.3-0.1-2.5-1.1-2.7-2.4c-5.8-32.6,41.4-37.2,41.4-37.2s6.8-10.9,19.2-0.1S101.6,115.3,101.6,115.3z"/>
<path d="M101.2,78c1.6-0.2,13.5,0,17.6,18.1c2.5,11.7,3.5,23.7,3.1,35.7c0,0,0,8.5-3.8,4.4s-5.5-9.1-6.4-10.8s-7.8-8.1-7.8-8.1
	l-7.4-3.3L101.2,78z"/>
<path class="st1" d="M95.3,125.9c0,0,4.2-17.4,13.2-10.7c6.1,4.5,7.3,12.9,1,17.8S95.3,125.9,95.3,125.9z"/>
<path d="M319.1,70.3c0,0-34.5,14.2-62,20.7s-104.7,21.5-100.8,49.1s42.1,27.2,64.5,17.2s78.7-42.2,89.3-49.2s22.9-13.9,22.9-13.9
	S337.3,84.9,319.1,70.3z"/>
<path d="M79.9,99.5c0,0-1.1,13-3.6,16.4c0,0,6.6-7.6,9.1-17s-2.2-7.7-2.2-7.7L79.9,99.5z"/>
</svg>
