<?xml version="1.0" encoding="utf-8"?>
<!-- Generator: Adobe Illustrator 23.1.0, SVG Export Plug-In . SVG Version: 6.00 Build 0)  -->
<svg version="1.1" id="Layer_1" xmlns="http://www.w3.org/2000/svg" xmlns:xlink="http://www.w3.org/1999/xlink" x="0px" y="0px"
	 viewBox="0 0 784 239" style="enable-background:new 0 0 784 239;" xml:space="preserve">
<style type="text/css">
	.st0{fill:#92CE2F;}
</style>
<title>Logo</title>
<g>
	<path class="st0" d="M69.3,225.5H20L42.3,43.4h66.4c41.2,0,64.8,18.2,64.8,54.2c0,24.4-7.8,43.3-23.3,57.1
		c-15.6,13.5-35,20.2-58.4,20.2c-5.5-0.1-10.9-0.4-16.3-1L69.3,225.5z M86.1,87.5l-5.2,42c6.5,0.8,10.6,1.3,12.5,1.3
		c15.8,0,27.8-8.6,27.8-26.2c0-11.4-7.8-17.1-23.1-17.1L86.1,87.5z"/>
	<path class="st0" d="M202.6,31.5l44.6-2.6l-18.9,152.5c-0.8,8.8,6.2,8,20.8,4.9l-1,36.8c-13.8,3.4-25.4,4.9-35.3,4.9
		c-19.4,0-32.7-12.4-29.6-36.6L202.6,31.5z"/>
	<path class="st0" d="M377.7,225.5h-44.1l2.3-21c-16.3,15.8-30.9,23.6-43.6,23.6c-10.4,0-18.7-4.9-24.9-15.1
		c-6-10.1-9.1-22.6-9.1-37.4c-0.3-40.7,18.4-80.4,72.1-80.4c17.9,0,38.4,4.4,61.5,13L377.7,225.5z M343.9,139.4
		c-5.1-3.3-11-5.1-17.1-5.2c-13.5,0-22.8,11.7-22.8,35.5c0,10.6,2.6,16.1,7.5,16.1c6.2,0,18.1-8.6,29.6-22.8L343.9,139.4z"/>
	<path class="st0" d="M574,136.8h-19.5l7.3-38.9h16.9l4.7-37.9l44.4-2.6l-4.9,40.5H654l-7.5,38.9H618l-4.9,40.7
		c-0.8,5.4,0,8.3,2.1,8.8c3.1,0.8,11.4-2.1,25.2-8.3l5.2,36.6c-15.8,9.1-30.6,13.5-44.9,13.5c-21.5,0-34.8-12.7-32.9-38.9L574,136.8
		z"/>
	<path class="st0" d="M667.9,185.8c12.6,4,25.7,6,38.9,6c7.5,0,10.6-2.9,9.9-8.6c-0.3-1.3-3.1-2.3-9.1-3.6l-18.4-4.1
		c-7-2-13.2-5.9-18.2-11.2c-5.5-6-8.3-13.5-8.3-22.8c0-30.1,21.3-46.2,59.9-46.2c14.7-0.1,29.3,2,43.3,6.2l-10.6,36
		c-12.6-4-25.7-6-38.9-6c-7.3,0-10.4,2.9-9.6,8.6c0.3,1.3,3.1,2.3,8.8,3.6s11.9,2.6,18.4,4.4c15.8,3.7,26.9,17.8,26.7,34
		c0,29-20.8,45.9-60.2,45.9c-14.7,0.1-29.3-2-43.3-6.2L667.9,185.8z"/>
	<path class="st0" d="M295.5,52h-10.6l-2.6,21.7c-0.8,6.3-3.9,9.4-9.3,9.4c-1.8,0-3.7-0.3-5.4-0.8l1-4.8c1.2,0.3,2.5,0.5,3.8,0.6
		c2.7,0,3.8-1.7,4.2-4.9l2.6-21.2h-4l1-5.1h3.7l0.6-4.8c0.7-6.3,3.7-9.4,9-9.4c1.8,0,3.5,0.3,5.2,0.8l-1,4.8
		c-1.2-0.3-2.4-0.5-3.6-0.6c-2.5,0-3.5,1.7-3.9,4.9l-0.5,4.2H302l-3.1,25h-5.7L295.5,52z M303.3,39.5c0,2.1-1.7,3.9-3.8,3.9
		c0,0,0,0-0.1,0c-1.6,0.1-3-1.1-3.1-2.7c0-0.1,0-0.2,0-0.3c0-2.1,1.7-3.9,3.8-3.9h0.1c1.6-0.1,2.9,1.1,3.1,2.6
		C303.3,39.3,303.3,39.4,303.3,39.5L303.3,39.5z"/>
	<path class="st0" d="M321.6,72l2-16.3c0.3-2.6-0.5-3.9-2.4-3.9s-5.3,2.5-8.6,6.8L311,72h-5.7l3-24.9l5.7-0.4l-0.7,5.5
		c3.7-3.9,7-5.8,10.1-5.8c4.6,0,6.6,2.8,5.9,8.2l-2,17.4H321.6z"/>
	<path class="st0" d="M359.9,32.7L355,72h-5.8l0.7-5.3c-3.6,3.9-6.7,5.8-9.5,5.8c-4.2,0-6.6-4.2-6.6-10.1c0-5.1,1.2-9.1,3.6-11.9
		c2.2-2.6,5.4-4.2,8.8-4.2c2.1,0,4.1,0.5,6.1,1.2L354,33L359.9,32.7z M351.6,52.9c-1.6-0.9-3.4-1.4-5.2-1.4c-3.8,0-6.8,3.4-6.8,10.4
		c0,3.5,0.9,5.2,2.7,5.2c2.1,0,5.5-2.7,8.4-6.8L351.6,52.9z"/>
	<path class="st0" d="M374.3,80.2c2.6-2.5,5-5.3,7.1-8.2h-0.8l-5.8-24.9l6.2-0.4l3.9,19.6c3.4-6.2,6-12.7,7.7-19.6l6.1,0.4
		c-3.9,14.7-10.6,26.8-20.2,36.1L374.3,80.2z"/>
	<path class="st0" d="M400.4,61.9c-0.2-4.1,1.2-8,3.8-11.2c2.4-2.9,6-4.5,9.8-4.4c6.4,0,10.1,3.7,10.1,10.6c0.2,4.1-1.2,8-3.8,11.2
		c-2.4,2.9-6,4.5-9.7,4.4C404,72.5,400.4,68.8,400.4,61.9z M416,64.5c1.5-2.1,2.2-4.7,2.1-7.3c0-3.8-1.7-5.8-4.8-5.8
		c-2.1,0-4,1.1-5.1,2.9c-1.5,2.1-2.2,4.7-2.1,7.3c-0.1,3.8,1.7,5.8,4.8,5.8C413,67.4,414.9,66.3,416,64.5z"/>
	<path class="st0" d="M437.2,46.7l-2,16.4c-0.3,2.6,0.5,3.9,2.4,3.9s5.3-2.5,8.5-6.8l1.6-13.2l5.8-0.4l-3,25.4h-5.7l0.6-5.3
		c-3.7,3.9-7,5.8-10.1,5.8c-4.6,0-6.6-2.8-5.9-8.3l2.1-17.1L437.2,46.7z"/>
	<path class="st0" d="M473.8,52.8c-1.1-0.3-2.2-0.5-3.3-0.6c-2,0-4.5,2.1-7.3,6.3L461.6,72h-5.7l3-24.9l5.8-0.4l-0.6,5.1
		c3.1-3.7,5.4-5.4,7.9-5.4c1.1,0,2.2,0.2,3.2,0.6L473.8,52.8z"/>
	<path class="st0" d="M583.1,7.1c-6.7,3.5-14,5.8-21.5,6.7c-8.7,1-17.3,0.4-25.9,0.7c-12.9,0.4-24.5,4.1-34.2,12.9
		c-12.4,11.3-13.3,27.6-2,37.6c2.7,2.3,4.2,2.9,6-1.1c6.2-13.9,16.6-22.9,31.6-26.7c10.7-2.7,21.8-3.4,32.3-8.6
		c-0.6,5.2-3.8,7.2-7.2,9c-8.2,4.3-17.3,5.8-25.9,8.9c-16.3,6-25.9,17.4-27.6,35c-0.4,4.6-0.6,9.2-0.3,13.8
		c-14.9,0.4-30.8,8.2-47.7,23.6l2.9-22.3L419,99.2l-15.3,126.3h44.1l7.8-65.1c14.8-15.3,24.9-22.8,30.9-22.8c5.5,0,7.8,3.6,7,11.1
		l-9.3,76.8h44.1l10.6-88.2c2.9-24.4-4-38.2-21-41.3c-0.5-3.8-0.6-7.7-0.2-11.5c0.3-3.8,1.7-6.8,6.6-5c1.7,0.4,3.5,0.7,5.3,0.8
		c3.6,0.5,7.3,0.5,10.9,0l0,0c12.3-1.5,22.6-6.8,30.2-16.6c12.3-15.9,16.8-34.4,16.6-54.2C587.2,6.6,586.5,5.3,583.1,7.1z"/>
</g>
</svg>
