<?xml version="1.0" encoding="utf-8"?>
<!-- Generator: Adobe Illustrator 23.1.0, SVG Export Plug-In . SVG Version: 6.00 Build 0)  -->
<svg version="1.1" id="Layer_1" xmlns="http://www.w3.org/2000/svg" xmlns:xlink="http://www.w3.org/1999/xlink" x="0px" y="0px"
	 viewBox="0 0 973 204.1" style="enable-background:new 0 0 973 204.1;" xml:space="preserve">
<style type="text/css">
	.st0{fill:#1A1A1A;}
	.st1{fill:#29ABE2;}
</style>
<g>
	<g>
		<g>
			<path class="st0" d="M143.6,69.3l-29.8,94.6h-7.5L76.2,80.1l-30.3,83.8h-7.5L8.6,69.3h8.2L42.2,155l30.3-85.7H80l30.1,85.4
				l25.4-85.4L143.6,69.3L143.6,69.3z"/>
			<path class="st0" d="M231.1,77.7c7.1,6.9,10.6,17.2,10.6,30.7v55.4H234v-54.9c0-11.3-2.8-19.9-8.5-25.9s-13.4-9-23.2-9
				c-10.2,0-18.4,3.3-24.5,9.8s-9.1,16.1-9.1,28.9v51h-7.8V35h7.8v54.4c2.7-7.1,7.1-12.5,13.4-16.3s13.5-5.7,21.6-5.7
				C214.9,67.4,224,70.8,231.1,77.7z"/>
			<path class="st0" d="M354.2,119.6h-81.7c0.2,8.5,2.1,15.6,5.6,21.4s8.1,10.2,13.8,13.1c5.7,2.9,11.9,4.4,18.6,4.4
				c9.3,0,17.1-2.3,23.3-6.9c6.3-4.6,10.2-10.8,11.8-18.7h8.2c-1.9,9.6-6.6,17.5-14.3,23.4c-7.7,6-17.4,9-29.1,9
				c-8.8,0-16.7-2-23.7-5.9s-12.4-9.6-16.4-17s-5.9-16-5.9-25.9s1.9-18.5,5.8-25.8s9.3-12.9,16.3-16.8s14.9-5.8,23.9-5.8
				c9.1,0,16.9,1.9,23.6,5.8s11.8,9.1,15.2,15.5c3.5,6.4,5.2,13.4,5.2,20.8C354.6,114.4,354.5,117.5,354.2,119.6z M342.3,91.9
				c-3.3-5.8-7.8-10.1-13.5-13c-5.7-2.8-11.8-4.3-18.5-4.3c-6.6,0-12.7,1.4-18.4,4.3c-5.6,2.8-10.2,7.2-13.8,13
				c-3.5,5.8-5.4,12.9-5.7,21.3h74.2C347.1,104.8,345.6,97.7,342.3,91.9z"/>
			<path class="st0" d="M398.5,72.8c5.9-3.7,13.5-5.5,22.6-5.5v8.2h-2.6c-9.3,0-17,2.6-23.2,7.9s-9.2,13.9-9.2,25.9v54.5h-7.8V69.2
				h7.8v19.5C388.4,81.8,392.6,76.5,398.5,72.8z"/>
			<path class="st0" d="M524.1,119.6h-81.7c0.2,8.5,2.1,15.6,5.6,21.4s8.1,10.2,13.8,13.1c5.7,2.9,11.9,4.4,18.6,4.4
				c9.3,0,17.1-2.3,23.3-6.9c6.3-4.6,10.2-10.8,11.8-18.7h8.2c-1.9,9.6-6.6,17.5-14.3,23.4c-7.7,6-17.4,9-29.1,9
				c-8.8,0-16.7-2-23.7-5.9s-12.4-9.6-16.4-17s-5.9-16-5.9-25.9s1.9-18.5,5.8-25.8s9.3-12.9,16.3-16.8s14.9-5.8,23.9-5.8
				c9.1,0,16.9,1.9,23.6,5.8s11.8,9.1,15.2,15.5c3.5,6.4,5.2,13.4,5.2,20.8C524.4,114.4,524.3,117.5,524.1,119.6z M512.2,91.9
				c-3.3-5.8-7.8-10.1-13.5-13c-5.7-2.8-11.8-4.3-18.5-4.3c-6.6,0-12.7,1.4-18.4,4.3c-5.6,2.8-10.2,7.2-13.8,13
				c-3.5,5.8-5.4,12.9-5.7,21.3h74.2C517,104.8,515.5,97.7,512.2,91.9z"/>
		</g>
		<g>
			<path class="st1" d="M586.4,164.1c14.9-12.6,26.9-23.5,36.2-32.4c9.2-9,17.4-19.5,24.6-31.7c7.2-12.1,10.8-24.9,10.8-38.2
				c0-16.9-5.2-30.6-15.6-40.9C632,10.6,617,5.4,597.5,5.4c-17.8,0-32.4,5.3-44,15.9C542,31.9,535.8,47.5,535.2,68h22.4
				c0-1,0.1-2.1,0.2-3.1c0.4-4.4,1.6-8.6,3.5-12.6c3.2-6.8,8-12.2,14.3-16.3c4.9-3.2,10.3-5.1,16.1-5.9c1.7-0.2,3.4-0.3,5.1-0.4
				c7.5,0.1,14.4,2,20.7,6c9.5,6,15.5,14.6,17.8,25.7c0.6,2.9,0.9,5.9,0.7,8.9c-0.1,2.7-0.8,5.2-1.7,7.7c-2.3,6.6-5.8,12.6-9.6,18.4
				c-5.3,8-11.2,15.4-17.4,22.6c-2.7,3.1-5.5,6.2-8.3,9.2c-1.2,1.3-3.3,1.3-4.5,0c-2.1-2.3-4.1-4.6-6.2-6.9
				c-0.2,0.1-0.3,0.3-0.5,0.4c-9.7,9.1-22.8,20.6-39.2,34.2l-13.3,11.3v26.7H662v-29.7L586.4,164.1L586.4,164.1z"/>
			<path class="st1" d="M617.3,65.7c-0.4-2.5-1.3-4.8-2.5-7c-5.3-9.2-16.5-12.9-26.2-8.7c-9,3.9-14.1,13.5-12.1,23.1
				c1.3,6.5,5,11.4,10.9,14.4c6.6,3.3,13.2,3.2,19.6-0.4c5.7-3.2,9.1-8.3,10.2-14.8c0.2-1.4,0.2-2.8,0.3-4.2c0-0.2,0-1.1-0.1-1.2
				C617.5,66.8,617.3,65.9,617.3,65.7z"/>
		</g>
		<g>
			<path class="st0" d="M683.4,157.4h45.5v6.6h-53.3V41.8h7.8V157.4z"/>
			<path class="st0" d="M754.5,69.5v94.6h-7.8V69.5H754.5z"/>
			<path class="st0" d="M815.3,155.5l34.8-86.1h8.4L819.3,164h-8.2l-39.2-94.6h8.5L815.3,155.5z"/>
			<path class="st0" d="M960.6,119.8h-81.7c0.2,8.5,2.1,15.6,5.6,21.4c3.5,5.8,8.1,10.2,13.8,13.1c5.7,2.9,11.9,4.4,18.6,4.4
				c9.3,0,17.1-2.3,23.3-6.9c6.3-4.6,10.2-10.8,11.8-18.7h8.2c-1.9,9.6-6.6,17.5-14.3,23.4c-7.7,6-17.4,9-29.1,9
				c-8.8,0-16.7-2-23.7-5.9s-12.4-9.6-16.4-17c-3.9-7.4-5.9-16-5.9-25.9s1.9-18.5,5.8-25.8c3.9-7.3,9.3-12.9,16.3-16.8
				s14.9-5.8,23.9-5.8c9.1,0,16.9,1.9,23.6,5.8c6.7,3.9,11.8,9.1,15.2,15.5c3.5,6.4,5.2,13.4,5.2,20.8
				C960.9,114.6,960.8,117.7,960.6,119.8z M948.6,92.1c-3.3-5.8-7.8-10.1-13.5-13c-5.7-2.8-11.8-4.3-18.5-4.3
				c-6.6,0-12.7,1.4-18.4,4.3c-5.6,2.8-10.2,7.2-13.8,13c-3.5,5.8-5.4,12.9-5.7,21.3h74.2C953.4,105,951.9,97.9,948.6,92.1z"/>
			<path class="st1" d="M745.9,46.5c-1.3-1.2-1.9-2.9-1.9-5c0-2,0.6-3.6,1.9-4.9c1.3-1.3,2.8-1.9,4.7-1.9s3.4,0.6,4.7,1.9
				s1.9,2.9,1.9,4.9c0,2.1-0.6,3.7-1.9,5c-1.3,1.2-2.8,1.8-4.7,1.8C748.8,48.4,747.2,47.8,745.9,46.5z"/>
		</g>
	</g>
</g>
</svg>
