<?xml version="1.0" encoding="utf-8"?>
<!-- Generator: Adobe Illustrator 23.1.0, SVG Export Plug-In . SVG Version: 6.00 Build 0)  -->
<svg version="1.1" id="Layer_1" xmlns="http://www.w3.org/2000/svg" xmlns:xlink="http://www.w3.org/1999/xlink" x="0px" y="0px"
	 viewBox="0 0 92 17" style="enable-background:new 0 0 92 17;" xml:space="preserve">
<style type="text/css">
	.st0{fill:#064B9C;}
</style>
<path class="st0" d="M3.7,13.5c0.1,0,0.3,0,0.5,0s0.4,0,0.7,0c1.6,0,2.7-0.4,3.5-1.2S9.5,10.4,9.5,9c0-1.5-0.4-2.6-1.1-3.3
	S6.6,4.6,5,4.6c-0.2,0-0.4,0-0.7,0c-0.2,0-0.4,0-0.6,0C3.7,4.6,3.7,13.5,3.7,13.5z M12.7,9.1c0,1.2-0.2,2.2-0.6,3.1
	c-0.4,0.9-0.9,1.6-1.6,2.2C9.8,15,9,15.4,8,15.7c-1,0.3-2.1,0.4-3.3,0.4c-0.6,0-1.2,0-2-0.1c-0.7,0-1.5-0.1-2.2-0.3V2.3
	C1.2,2.2,2,2.1,2.7,2c0.9,0,1.6,0,2.2,0C6,2,7.1,2.1,8.1,2.4s1.8,0.7,2.5,1.3s1.2,1.3,1.6,2.2C12.6,6.7,12.7,7.8,12.7,9.1z
	 M19.2,13.9c0.3,0,0.6,0,0.8,0c0.3,0,0.5,0,0.6-0.1v-2.3c-0.1,0-0.3-0.1-0.5-0.1s-0.5,0-0.7,0c-0.3,0-0.5,0-0.8,0.1
	c-0.2,0-0.5,0.1-0.6,0.2c-0.2,0.1-0.3,0.2-0.4,0.4s-0.2,0.4-0.2,0.6c0,0.5,0.2,0.8,0.5,1C18.2,13.8,18.6,13.9,19.2,13.9z M18.9,5.2
	c0.9,0,1.6,0.1,2.2,0.3c0.6,0.2,1.1,0.5,1.4,0.9c0.4,0.4,0.6,0.8,0.8,1.4s0.2,1.1,0.2,1.8v6.2c-0.4,0.1-1,0.2-1.8,0.3
	C21,16.2,20,16.2,19,16.2c-0.7,0-1.3-0.1-1.9-0.2c-0.5-0.1-1-0.3-1.4-0.6s-0.7-0.6-0.9-1.1c-0.2-0.4-0.3-1-0.3-1.6s0.1-1.1,0.4-1.6
	c0.3-0.4,0.6-0.8,1-1c0.4-0.3,0.9-0.4,1.4-0.5s1.1-0.2,1.7-0.2c0.4,0,0.7,0,1,0.1c0.3,0,0.6,0.1,0.7,0.1V9.4c0-0.5-0.2-0.9-0.5-1.2
	s-0.8-0.5-1.6-0.5c-0.5,0-1,0-1.5,0.1S16.2,8,15.8,8.1l-0.4-2.4c0.2-0.1,0.4-0.1,0.6-0.2c0.3-0.1,0.6-0.1,0.9-0.2s0.6-0.1,1-0.1
	C18.2,5.2,18.6,5.2,18.9,5.2z M26.1,2.9l3-0.5v3.1h3.6V8h-3.6v3.7c0,0.6,0.1,1.1,0.3,1.5c0.2,0.4,0.7,0.6,1.3,0.6c0.3,0,0.6,0,1-0.1
	c0.3-0.1,0.7-0.2,0.9-0.3l0.4,2.3c-0.4,0.1-0.8,0.3-1.2,0.4c-0.4,0.1-1,0.2-1.6,0.2c-0.8,0-1.5-0.1-2-0.3c-0.5-0.2-1-0.5-1.3-0.9
	s-0.5-0.9-0.7-1.4c-0.1-0.6-0.2-1.2-0.2-1.9V2.9H26.1z M38.7,13.9c0.3,0,0.6,0,0.8,0c0.3,0,0.5,0,0.6-0.1v-2.3
	c-0.1,0-0.3-0.1-0.5-0.1s-0.5,0-0.7,0c-0.3,0-0.5,0-0.8,0.1c-0.2,0-0.5,0.1-0.6,0.2c-0.2,0.1-0.3,0.2-0.4,0.4
	C37,12.2,37,12.4,37,12.7c0,0.5,0.2,0.8,0.5,1C37.7,13.8,38.2,13.9,38.7,13.9z M38.5,5.2c0.9,0,1.6,0.1,2.2,0.3
	c0.6,0.2,1.1,0.5,1.4,0.9c0.4,0.4,0.6,0.8,0.8,1.4c0.1,0.5,0.2,1.1,0.2,1.8v6.2c-0.4,0.1-1,0.2-1.8,0.3s-1.7,0.2-2.8,0.2
	c-0.7,0-1.3-0.1-1.9-0.2c-0.5-0.1-1-0.3-1.4-0.6s-0.7-0.6-0.9-1.1c-0.2-0.4-0.3-1-0.3-1.6s0.1-1.1,0.4-1.6c0.3-0.4,0.6-0.8,1-1
	c0.4-0.3,0.9-0.4,1.4-0.5s1.1-0.2,1.7-0.2c0.4,0,0.7,0,1,0.1c0.3,0,0.6,0.1,0.7,0.1V9.4c0-0.5-0.2-0.9-0.5-1.2s-0.8-0.5-1.6-0.5
	c-0.5,0-1,0-1.5,0.1S35.7,8,35.3,8.1L35,5.7c0.2-0.1,0.4-0.1,0.6-0.2c0.3-0.1,0.6-0.1,0.9-0.2c0.3-0.1,0.6-0.1,1-0.1
	C37.8,5.2,38.1,5.2,38.5,5.2z M50.6,16.2c-0.8,0-1.5,0-2.3-0.1c-0.7,0-1.5-0.1-2.3-0.3V2.3c0.6-0.1,1.3-0.2,2.1-0.3
	c0.7,0,1.4,0,2.1,0c0.9,0,1.7,0.1,2.4,0.2c0.7,0.1,1.4,0.3,1.9,0.6c0.5,0.3,1,0.7,1.3,1.2s0.5,1.1,0.5,1.8c0,1.1-0.5,2-1.6,2.6
	c0.9,0.3,1.5,0.8,1.8,1.4c0.3,0.6,0.5,1.2,0.5,1.9c0,1.5-0.5,2.5-1.6,3.3C54.2,15.8,52.7,16.2,50.6,16.2z M49,10v3.6
	c0.2,0,0.5,0,0.7,0.1c0.3,0,0.6,0,0.9,0c0.9,0,1.7-0.1,2.3-0.4c0.6-0.3,0.9-0.8,0.9-1.5c0-0.6-0.2-1.1-0.7-1.4
	C52.5,10.1,51.8,10,51,10H49z M49,7.6h1.5c1,0,1.6-0.1,2.1-0.4C53,7,53.2,6.6,53.2,6S53,5,52.6,4.8c-0.4-0.2-1.1-0.3-1.9-0.3
	c-0.3,0-0.6,0-0.9,0c-0.3,0-0.6,0-0.8,0V7.6z M63.2,13.9c0.3,0,0.6,0,0.8,0c0.3,0,0.5,0,0.6-0.1v-2.3c-0.1,0-0.3-0.1-0.5-0.1
	c-0.2,0-0.5,0-0.7,0c-0.3,0-0.5,0-0.8,0.1c-0.2,0-0.5,0.1-0.6,0.2c-0.2,0.1-0.3,0.2-0.4,0.4c-0.1,0.2-0.2,0.4-0.2,0.6
	c0,0.5,0.2,0.8,0.5,1C62.2,13.8,62.7,13.9,63.2,13.9z M63,5.2c0.9,0,1.6,0.1,2.2,0.3c0.6,0.2,1.1,0.5,1.4,0.9
	c0.4,0.4,0.6,0.8,0.8,1.4c0.1,0.5,0.2,1.1,0.2,1.8v6.2c-0.4,0.1-1,0.2-1.8,0.3s-1.7,0.2-2.8,0.2c-0.7,0-1.3-0.1-1.9-0.2
	c-0.5-0.1-1-0.3-1.4-0.6s-0.7-0.6-0.9-1.1c-0.2-0.4-0.3-1-0.3-1.6s0.1-1.1,0.4-1.6c0.3-0.4,0.6-0.8,1-1c0.4-0.3,0.9-0.4,1.4-0.5
	s1.1-0.2,1.7-0.2c0.4,0,0.7,0,1,0.1c0.3,0,0.6,0.1,0.7,0.1V9.4c0-0.5-0.2-0.9-0.5-1.2c-0.3-0.3-0.8-0.5-1.6-0.5c-0.5,0-1,0-1.5,0.1
	S60.2,8,59.8,8.1l-0.4-2.4c0.2-0.1,0.4-0.1,0.6-0.2c0.3-0.1,0.6-0.1,0.9-0.2c0.3-0.1,0.6-0.1,1-0.1S62.6,5.2,63,5.2z M70.2,5.8
	c0.5-0.1,1.2-0.3,2-0.4s1.6-0.2,2.5-0.2s1.6,0.1,2.2,0.4c0.6,0.2,1.1,0.6,1.4,1C78.7,7,79,7.5,79.1,8.1s0.2,1.2,0.2,2V16h-3v-5.6
	c0-1-0.1-1.6-0.4-2c-0.3-0.4-0.7-0.6-1.4-0.6c-0.2,0-0.4,0-0.7,0c-0.2,0-0.5,0-0.6,0.1V16h-3V5.8z M85,9.3c0.3-0.3,0.6-0.7,0.9-1
	s0.6-0.7,0.9-1s0.6-0.7,0.8-1c0.3-0.3,0.5-0.6,0.7-0.8h3.5c-0.7,0.8-1.4,1.6-2.1,2.3s-1.4,1.5-2.2,2.3c0.4,0.4,0.8,0.8,1.2,1.3
	c0.4,0.5,0.8,1,1.2,1.5c0.4,0.5,0.8,1.1,1.1,1.6c0.3,0.5,0.6,1,0.8,1.5h-3.4c-0.2-0.3-0.5-0.7-0.7-1.1c-0.3-0.4-0.6-0.8-0.9-1.3
	c-0.3-0.4-0.6-0.8-1-1.2c-0.3-0.4-0.7-0.7-1-1V16h-3V1l3-0.5v8.8H85z"/>
</svg>
