<?xml version="1.0" encoding="utf-8"?>
<!-- Generator: Adobe Illustrator 23.1.0, SVG Export Plug-In . SVG Version: 6.00 Build 0)  -->
<svg version="1.1" id="Layer_1" xmlns="http://www.w3.org/2000/svg" xmlns:xlink="http://www.w3.org/1999/xlink" x="0px" y="0px"
	 viewBox="0 0 59.3 55.4" style="enable-background:new 0 0 59.3 55.4;" xml:space="preserve">
<style type="text/css">
	.st0{fill:url(#SVGID_1_);}
	.st1{fill:url(#SVGID_2_);}
	.st2{fill:url(#SVGID_3_);}
	.st3{fill:url(#SVGID_4_);}
</style>
<title>Artboard 6</title>
<g>
	<linearGradient id="SVGID_1_" gradientUnits="userSpaceOnUse" x1="3.4077" y1="48.4701" x2="31.4465" y2="20.4312">
		<stop  offset="2.149471e-03" style="stop-color:#9D14D3"/>
		<stop  offset="1" style="stop-color:#4B21CD"/>
	</linearGradient>
	<path class="st0" d="M54,0H5.3C2.4,0,0.1,1.9,0,4.4V40c0,2.4,2.3,4.4,5.3,4.4h22.8V53H14.4c-0.6,0.1-1.1,0.6-1.1,1.3
		c0.1,0.6,0.5,1,1.1,1.1h30.4c0.6-0.1,1.1-0.6,1.1-1.3c-0.1-0.6-0.5-1-1.1-1.1H30.4v-8.5H54c3,0,5.3-2,5.3-4.4V4.4C59.3,2,57,0,54,0
		z M57,40c0,1.1-1.3,2.1-3,2.1H5.3c-1.6,0-2.9-1-2.9-2.1V4.4c0-1.1,1.3-2,2.9-2H54c1.6,0,3,1,3,2.1V40z"/>
	<linearGradient id="SVGID_2_" gradientUnits="userSpaceOnUse" x1="3.7601" y1="48.8225" x2="31.7989" y2="20.7836">
		<stop  offset="2.149471e-03" style="stop-color:#9D14D3"/>
		<stop  offset="1" style="stop-color:#4B21CD"/>
	</linearGradient>
	<path class="st1" d="M33.8,15.3c-0.6-0.3-1.3-0.1-1.6,0.5l-6.3,12.3c-0.3,0.6-0.1,1.3,0.5,1.6c0.6,0.3,1.3,0.1,1.6-0.5l6.3-12.3
		C34.6,16.3,34.3,15.6,33.8,15.3z"/>
	<linearGradient id="SVGID_3_" gradientUnits="userSpaceOnUse" x1="8.8563" y1="53.9187" x2="36.8952" y2="25.8798">
		<stop  offset="2.149471e-03" style="stop-color:#9D14D3"/>
		<stop  offset="1" style="stop-color:#4B21CD"/>
	</linearGradient>
	<path class="st2" d="M41.2,14.9c-0.5-0.5-1.2-0.5-1.7,0s-0.5,1.2,0,1.7l5.8,5.8l-5.8,5.8c-0.5,0.4-0.5,1.2-0.1,1.7
		c0.4,0.5,1.2,0.5,1.7,0.1l6.7-6.7c0.4-0.5,0.4-1.2,0-1.6L41.2,14.9z"/>
	<linearGradient id="SVGID_4_" gradientUnits="userSpaceOnUse" x1="-1.4934" y1="43.569" x2="26.5454" y2="15.5301">
		<stop  offset="2.149471e-03" style="stop-color:#9D14D3"/>
		<stop  offset="1" style="stop-color:#4B21CD"/>
	</linearGradient>
	<path class="st3" d="M20.6,14.9C20.6,14.9,20.6,14.9,20.6,14.9c-0.5-0.5-1.2-0.5-1.7,0l-6.7,6.7c-0.5,0.5-0.5,1.2,0,1.6
		c0,0,0,0,0,0l6.7,6.7c0.5,0.4,1.2,0.4,1.7-0.1c0.4-0.4,0.4-1.1,0-1.5l-5.8-5.8l5.8-5.8C21,16.1,21.1,15.3,20.6,14.9z"/>
</g>
</svg>
