<?xml version="1.0" encoding="utf-8"?>
<!-- Generator: Adobe Illustrator 23.1.0, SVG Export Plug-In . SVG Version: 6.00 Build 0)  -->
<svg version="1.1" id="Layer_1" xmlns="http://www.w3.org/2000/svg" xmlns:xlink="http://www.w3.org/1999/xlink" x="0px" y="0px"
	 viewBox="0 0 58 52.6" style="enable-background:new 0 0 58 52.6;" xml:space="preserve">
<style type="text/css">
	.st0{fill:url(#SVGID_1_);}
</style>
<title>Artboard 4</title>
<linearGradient id="SVGID_1_" gradientUnits="userSpaceOnUse" x1="-1.3637" y1="50.5737" x2="38.3714" y2="10.8386">
	<stop  offset="2.149471e-03" style="stop-color:#9D14D3"/>
	<stop  offset="1" style="stop-color:#4B21CD"/>
</linearGradient>
<path class="st0" d="M57,27.6h-1.7c-0.1-9.9-6-18.9-15.1-22.9h11v1.7c0,0.6,0.4,1,1,1s1-0.4,1-1V1c0-0.6-0.4-1-1-1s-1,0.4-1,1v1.7
	H33V1c0-0.6-0.4-1-1-1h-5.4c-0.6,0-1,0.4-1,1v1.7H7.4V1c0-0.6-0.4-1-1-1s-1,0.4-1,1v5.4c0,0.6,0.4,1,1,1s1-0.4,1-1V4.7h11
	C9,8.8,2.8,18,2.7,28.3H1c-0.6,0-1,0.4-1,1l0,0v5.4c0,0.6,0.4,1,1,1h5.4c0.6,0,1-0.4,1-1v-5.4c0-0.6-0.4-1-1-1H4.7
	c0.1-11.9,9.1-22,20.9-23.5v1.6c0,0.6,0.4,1,1,1h1.7L17.9,34c-0.1,0.2-0.1,0.5,0,0.7L21.6,45l-0.1,6.5c0,0.6,0.4,1,1,1h12.8
	c0.6,0,1-0.4,1-1V45L41,34.8c0.1-0.3,0.1-0.6,0-0.8L30.3,7.4H32c0.6,0,1-0.4,1-1V4.8c11.5,1.6,19.8,11,20.2,22.8h-1.7
	c-0.6,0-1,0.4-1,1V34c0,0.6,0.4,1,1,1H57c0.6,0,1-0.4,1-1v-5.4C58,28.1,57.6,27.6,57,27.6C57,27.6,57,27.6,57,27.6z M5.4,33.7H2
	v-3.4h3.4V33.7z M23.6,50.6v-4.7h10.8v4.7H23.6z M34.7,43.8H23.3l-3.5-9.4l8.4-21.4v18.3c0,0.6,0.4,1,1,1s1-0.4,1-1V13L39,34.4
	L34.7,43.8z M31,5.4h-3.4V2H31V5.4z M56,33h-3.4v-3.3H56V33z"/>
</svg>
